<svg id="visual" viewBox="0 0 1920 200" width="1920" height="200" xmlns="http://www.w3.org/2000/svg" xmlns:xlink="http://www.w3.org/1999/xlink" version="1.1">
  <rect x="0" y="0" width="1920" height="200" fill="#001220"></rect>
  <path d="M0 51L13.8 55.2C27.7 59.3 55.3 67.7 83.2 69.8C111 72 139 68 166.8 61.7C194.7 55.3 222.3 46.7 250.2 41.8C278 37 306 36 333.8 39.8C361.7 43.7 389.3 52.3 417.2 58.3C445 64.3 473 67.7 500.8 63.3C528.7 59 556.3 47 584.2 45.8C612 44.7 640 54.3 667.8 54C695.7 53.7 723.3 43.3 751.2 42.2C779 41 807 49 834.8 48.5C862.7 48 890.3 39 918.2 37C946 35 974 40 1001.8 42.7C1029.7 45.3 1057.3 45.7 1085.2 44.2C1113 42.7 1141 39.3 1168.8 42.2C1196.7 45 1224.3 54 1252.2 54.2C1280 54.3 1308 45.7 1335.8 44.2C1363.7 42.7 1391.3 48.3 1419.2 48.5C1447 48.7 1475 43.3 1502.8 46.8C1530.7 50.3 1558.3 62.7 1586.2 65.8C1614 69 1642 63 1669.8 55C1697.7 47 1725.3 37 1753.2 38.7C1781 40.3 1809 53.7 1836.8 60.2C1864.7 66.7 1892.3 66.3 1906.2 66.2L1920 66L1920 201L1906.2 201C1892.3 201 1864.7 201 1836.8 201C1809 201 1781 201 1753.2 201C1725.3 201 1697.7 201 1669.8 201C1642 201 1614 201 1586.2 201C1558.3 201 1530.7 201 1502.8 201C1475 201 1447 201 1419.2 201C1391.3 201 1363.7 201 1335.8 201C1308 201 1280 201 1252.2 201C1224.3 201 1196.7 201 1168.8 201C1141 201 1113 201 1085.2 201C1057.3 201 1029.7 201 1001.8 201C974 201 946 201 918.2 201C890.3 201 862.7 201 834.8 201C807 201 779 201 751.2 201C723.3 201 695.7 201 667.8 201C640 201 612 201 584.2 201C556.3 201 528.7 201 500.8 201C473 201 445 201 417.2 201C389.3 201 361.7 201 333.8 201C306 201 278 201 250.2 201C222.3 201 194.7 201 166.8 201C139 201 111 201 83.2 201C55.3 201 27.7 201 13.8 201L0 201Z" fill="#009c8d"></path>
  <path d="M0 74L13.8 74.2C27.7 74.3 55.3 74.7 83.2 80.7C111 86.7 139 98.3 166.8 101.3C194.7 104.3 222.3 98.7 250.2 97C278 95.3 306 97.7 333.8 94.2C361.7 90.7 389.3 81.3 417.2 75.7C445 70 473 68 500.8 68.5C528.7 69 556.3 72 584.2 74.5C612 77 640 79 667.8 82.2C695.7 85.3 723.3 89.7 751.2 93.3C779 97 807 100 834.8 98.7C862.7 97.3 890.3 91.7 918.2 91.3C946 91 974 96 1001.8 97C1029.7 98 1057.3 95 1085.2 95.5C1113 96 1141 100 1168.8 103.2C1196.7 106.3 1224.3 108.7 1252.2 106.2C1280 103.7 1308 96.3 1335.8 94.5C1363.7 92.7 1391.3 96.3 1419.2 95.2C1447 94 1475 88 1502.8 89.5C1530.7 91 1558.3 100 1586.2 104.5C1614 109 1642 109 1669.8 102.8C1697.7 96.7 1725.3 84.3 1753.2 78.8C1781 73.3 1809 74.7 1836.8 75.5C1864.7 76.3 1892.3 76.7 1906.2 76.8L1920 77L1920 201L1906.2 201C1892.3 201 1864.7 201 1836.8 201C1809 201 1781 201 1753.2 201C1725.3 201 1697.7 201 1669.8 201C1642 201 1614 201 1586.2 201C1558.3 201 1530.7 201 1502.8 201C1475 201 1447 201 1419.2 201C1391.3 201 1363.7 201 1335.8 201C1308 201 1280 201 1252.2 201C1224.3 201 1196.7 201 1168.8 201C1141 201 1113 201 1085.2 201C1057.3 201 1029.7 201 1001.8 201C974 201 946 201 918.2 201C890.3 201 862.7 201 834.8 201C807 201 779 201 751.2 201C723.3 201 695.7 201 667.8 201C640 201 612 201 584.2 201C556.3 201 528.7 201 500.8 201C473 201 445 201 417.2 201C389.3 201 361.7 201 333.8 201C306 201 278 201 250.2 201C222.3 201 194.7 201 166.8 201C139 201 111 201 83.2 201C55.3 201 27.7 201 13.8 201L0 201Z" fill="#0094a8"></path>
  <path d="M0 109L13.8 112.3C27.7 115.7 55.3 122.3 83.2 126.3C111 130.3 139 131.7 166.8 130C194.7 128.3 222.3 123.7 250.2 122.2C278 120.7 306 122.3 333.8 125.5C361.7 128.7 389.3 133.3 417.2 135.3C445 137.3 473 136.7 500.8 136.8C528.7 137 556.3 138 584.2 133.7C612 129.3 640 119.7 667.8 119.3C695.7 119 723.3 128 751.2 126.8C779 125.7 807 114.3 834.8 109.2C862.7 104 890.3 105 918.2 105.2C946 105.3 974 104.7 1001.8 104.8C1029.7 105 1057.3 106 1085.2 110.7C1113 115.3 1141 123.7 1168.8 126.2C1196.7 128.7 1224.3 125.3 1252.2 123.7C1280 122 1308 122 1335.8 121C1363.7 120 1391.3 118 1419.2 115C1447 112 1475 108 1502.8 105.8C1530.7 103.7 1558.3 103.3 1586.2 105.3C1614 107.3 1642 111.7 1669.8 114C1697.7 116.3 1725.3 116.7 1753.2 114.8C1781 113 1809 109 1836.8 109C1864.7 109 1892.3 113 1906.2 115L1920 117L1920 201L1906.2 201C1892.3 201 1864.7 201 1836.8 201C1809 201 1781 201 1753.2 201C1725.3 201 1697.7 201 1669.8 201C1642 201 1614 201 1586.2 201C1558.3 201 1530.7 201 1502.8 201C1475 201 1447 201 1419.2 201C1391.3 201 1363.7 201 1335.8 201C1308 201 1280 201 1252.2 201C1224.3 201 1196.7 201 1168.8 201C1141 201 1113 201 1085.2 201C1057.3 201 1029.7 201 1001.8 201C974 201 946 201 918.2 201C890.3 201 862.7 201 834.8 201C807 201 779 201 751.2 201C723.3 201 695.7 201 667.8 201C640 201 612 201 584.2 201C556.3 201 528.7 201 500.8 201C473 201 445 201 417.2 201C389.3 201 361.7 201 333.8 201C306 201 278 201 250.2 201C222.3 201 194.7 201 166.8 201C139 201 111 201 83.2 201C55.3 201 27.7 201 13.8 201L0 201Z" fill="#0088b5"></path>
  <path d="M0 157L13.8 159.2C27.7 161.3 55.3 165.7 83.2 164.5C111 163.3 139 156.7 166.8 158.2C194.7 159.7 222.3 169.3 250.2 171C278 172.7 306 166.3 333.8 166C361.7 165.7 389.3 171.3 417.2 172.7C445 174 473 171 500.8 169.5C528.7 168 556.3 168 584.2 164.2C612 160.3 640 152.7 667.8 152.2C695.7 151.7 723.3 158.3 751.2 162.2C779 166 807 167 834.8 164.2C862.7 161.3 890.3 154.7 918.2 156.3C946 158 974 168 1001.8 171.2C1029.7 174.3 1057.3 170.7 1085.2 170.7C1113 170.7 1141 174.3 1168.8 172.7C1196.7 171 1224.3 164 1252.2 162.7C1280 161.3 1308 165.7 1335.8 165C1363.7 164.3 1391.3 158.7 1419.2 160.2C1447 161.7 1475 170.3 1502.8 172.5C1530.7 174.7 1558.3 170.3 1586.2 167.3C1614 164.3 1642 162.7 1669.8 158.7C1697.7 154.7 1725.3 148.3 1753.2 147.2C1781 146 1809 150 1836.8 152.2C1864.7 154.3 1892.3 154.7 1906.2 154.8L1920 155L1920 201L1906.2 201C1892.3 201 1864.7 201 1836.8 201C1809 201 1781 201 1753.2 201C1725.3 201 1697.7 201 1669.8 201C1642 201 1614 201 1586.2 201C1558.3 201 1530.7 201 1502.8 201C1475 201 1447 201 1419.2 201C1391.3 201 1363.7 201 1335.8 201C1308 201 1280 201 1252.2 201C1224.3 201 1196.7 201 1168.8 201C1141 201 1113 201 1085.2 201C1057.3 201 1029.7 201 1001.8 201C974 201 946 201 918.2 201C890.3 201 862.7 201 834.8 201C807 201 779 201 751.2 201C723.3 201 695.7 201 667.8 201C640 201 612 201 584.2 201C556.3 201 528.7 201 500.8 201C473 201 445 201 417.2 201C389.3 201 361.7 201 333.8 201C306 201 278 201 250.2 201C222.3 201 194.7 201 166.8 201C139 201 111 201 83.2 201C55.3 201 27.7 201 13.8 201L0 201Z" fill="#1979bb"></path>
</svg>