<svg id="visual" viewBox="0 0 1920 300" width="1920" height="300" xmlns="http://www.w3.org/2000/svg" xmlns:xlink="http://www.w3.org/1999/xlink" version="1.1"><path d="M0 263L15.2 265.8C30.3 268.7 60.7 274.3 91.2 276.7C121.7 279 152.3 278 182.8 273.3C213.3 268.7 243.7 260.3 274.2 254.8C304.7 249.3 335.3 246.7 365.8 250.5C396.3 254.3 426.7 264.7 457.2 267.2C487.7 269.7 518.3 264.3 548.8 264C579.3 263.7 609.7 268.3 640 266.7C670.3 265 700.7 257 731.2 254.8C761.7 252.7 792.3 256.3 822.8 259C853.3 261.7 883.7 263.3 914.2 262.8C944.7 262.3 975.3 259.7 1005.8 258.5C1036.3 257.3 1066.7 257.7 1097.2 258.3C1127.7 259 1158.3 260 1188.8 261.8C1219.3 263.7 1249.7 266.3 1280 269.3C1310.3 272.3 1340.7 275.7 1371.2 274.5C1401.7 273.3 1432.3 267.7 1462.8 266C1493.3 264.3 1523.7 266.7 1554.2 268.7C1584.7 270.7 1615.3 272.3 1645.8 272C1676.3 271.7 1706.7 269.3 1737.2 264.3C1767.7 259.3 1798.3 251.7 1828.8 248.8C1859.3 246 1889.7 248 1904.8 249L1920 250L1920 0L1904.8 0C1889.7 0 1859.3 0 1828.8 0C1798.3 0 1767.7 0 1737.2 0C1706.7 0 1676.3 0 1645.8 0C1615.3 0 1584.7 0 1554.2 0C1523.7 0 1493.3 0 1462.8 0C1432.3 0 1401.7 0 1371.2 0C1340.7 0 1310.3 0 1280 0C1249.7 0 1219.3 0 1188.8 0C1158.3 0 1127.7 0 1097.2 0C1066.7 0 1036.3 0 1005.8 0C975.3 0 944.7 0 914.2 0C883.7 0 853.3 0 822.8 0C792.3 0 761.7 0 731.2 0C700.7 0 670.3 0 640 0C609.7 0 579.3 0 548.8 0C518.3 0 487.7 0 457.2 0C426.7 0 396.3 0 365.8 0C335.3 0 304.7 0 274.2 0C243.7 0 213.3 0 182.8 0C152.3 0 121.7 0 91.2 0C60.7 0 30.3 0 15.2 0L0 0Z" fill="#009c8d"></path><path d="M0 205L15.2 207.2C30.3 209.3 60.7 213.7 91.2 216.8C121.7 220 152.3 222 182.8 224.8C213.3 227.7 243.7 231.3 274.2 231.8C304.7 232.3 335.3 229.7 365.8 228.7C396.3 227.7 426.7 228.3 457.2 229.8C487.7 231.3 518.3 233.7 548.8 234C579.3 234.3 609.7 232.7 640 228.8C670.3 225 700.7 219 731.2 216.8C761.7 214.7 792.3 216.3 822.8 217.3C853.3 218.3 883.7 218.7 914.2 218.8C944.7 219 975.3 219 1005.8 219.7C1036.3 220.3 1066.7 221.7 1097.2 222.8C1127.7 224 1158.3 225 1188.8 228.2C1219.3 231.3 1249.7 236.7 1280 234.8C1310.3 233 1340.7 224 1371.2 224C1401.7 224 1432.3 233 1462.8 232C1493.3 231 1523.7 220 1554.2 214.2C1584.7 208.3 1615.3 207.7 1645.8 212.2C1676.3 216.7 1706.7 226.3 1737.2 232C1767.7 237.7 1798.3 239.3 1828.8 234.8C1859.3 230.3 1889.7 219.7 1904.8 214.3L1920 209L1920 0L1904.8 0C1889.7 0 1859.3 0 1828.8 0C1798.3 0 1767.7 0 1737.2 0C1706.7 0 1676.3 0 1645.8 0C1615.3 0 1584.7 0 1554.2 0C1523.7 0 1493.3 0 1462.8 0C1432.3 0 1401.7 0 1371.2 0C1340.7 0 1310.3 0 1280 0C1249.7 0 1219.3 0 1188.8 0C1158.3 0 1127.7 0 1097.2 0C1066.7 0 1036.3 0 1005.8 0C975.3 0 944.7 0 914.2 0C883.7 0 853.3 0 822.8 0C792.3 0 761.7 0 731.2 0C700.7 0 670.3 0 640 0C609.7 0 579.3 0 548.8 0C518.3 0 487.7 0 457.2 0C426.7 0 396.3 0 365.8 0C335.3 0 304.7 0 274.2 0C243.7 0 213.3 0 182.8 0C152.3 0 121.7 0 91.2 0C60.7 0 30.3 0 15.2 0L0 0Z" fill="#00989c"></path><path d="M0 197L15.2 196.7C30.3 196.3 60.7 195.7 91.2 191.8C121.7 188 152.3 181 182.8 180.7C213.3 180.3 243.7 186.7 274.2 188.7C304.7 190.7 335.3 188.3 365.8 185.3C396.3 182.3 426.7 178.7 457.2 177.7C487.7 176.7 518.3 178.3 548.8 178C579.3 177.7 609.7 175.3 640 175.2C670.3 175 700.7 177 731.2 182.3C761.7 187.7 792.3 196.3 822.8 197.3C853.3 198.3 883.7 191.7 914.2 190.7C944.7 189.7 975.3 194.3 1005.8 193.8C1036.3 193.3 1066.7 187.7 1097.2 186.5C1127.7 185.3 1158.3 188.7 1188.8 191.3C1219.3 194 1249.7 196 1280 192C1310.3 188 1340.7 178 1371.2 179C1401.7 180 1432.3 192 1462.8 193.7C1493.3 195.3 1523.7 186.7 1554.2 183.8C1584.7 181 1615.3 184 1645.8 183.7C1676.3 183.3 1706.7 179.7 1737.2 179.7C1767.7 179.7 1798.3 183.3 1828.8 187.5C1859.3 191.7 1889.7 196.3 1904.8 198.7L1920 201L1920 0L1904.8 0C1889.7 0 1859.3 0 1828.8 0C1798.3 0 1767.7 0 1737.2 0C1706.7 0 1676.3 0 1645.8 0C1615.3 0 1584.7 0 1554.2 0C1523.7 0 1493.3 0 1462.8 0C1432.3 0 1401.7 0 1371.2 0C1340.7 0 1310.3 0 1280 0C1249.7 0 1219.3 0 1188.8 0C1158.3 0 1127.7 0 1097.2 0C1066.7 0 1036.3 0 1005.8 0C975.3 0 944.7 0 914.2 0C883.7 0 853.3 0 822.8 0C792.3 0 761.7 0 731.2 0C700.7 0 670.3 0 640 0C609.7 0 579.3 0 548.8 0C518.3 0 487.7 0 457.2 0C426.7 0 396.3 0 365.8 0C335.3 0 304.7 0 274.2 0C243.7 0 213.3 0 182.8 0C152.3 0 121.7 0 91.2 0C60.7 0 30.3 0 15.2 0L0 0Z" fill="#0094a8"></path><path d="M0 152L15.2 150.3C30.3 148.7 60.7 145.3 91.2 147.3C121.7 149.3 152.3 156.7 182.8 155.7C213.3 154.7 243.7 145.3 274.2 144.3C304.7 143.3 335.3 150.7 365.8 154.5C396.3 158.3 426.7 158.7 457.2 160.2C487.7 161.7 518.3 164.3 548.8 165C579.3 165.7 609.7 164.3 640 158.5C670.3 152.7 700.7 142.3 731.2 140.3C761.7 138.3 792.3 144.7 822.8 145.8C853.3 147 883.7 143 914.2 140C944.7 137 975.3 135 1005.8 137.5C1036.3 140 1066.7 147 1097.2 148.2C1127.7 149.3 1158.3 144.7 1188.8 146C1219.3 147.3 1249.7 154.7 1280 157.8C1310.3 161 1340.7 160 1371.2 157.5C1401.7 155 1432.3 151 1462.8 149.2C1493.3 147.3 1523.7 147.7 1554.2 147.3C1584.7 147 1615.3 146 1645.8 148.8C1676.3 151.7 1706.7 158.3 1737.2 161.3C1767.7 164.3 1798.3 163.7 1828.8 163.5C1859.3 163.3 1889.7 163.7 1904.8 163.8L1920 164L1920 0L1904.8 0C1889.7 0 1859.3 0 1828.8 0C1798.3 0 1767.7 0 1737.2 0C1706.7 0 1676.3 0 1645.8 0C1615.3 0 1584.7 0 1554.2 0C1523.7 0 1493.3 0 1462.8 0C1432.3 0 1401.7 0 1371.2 0C1340.7 0 1310.3 0 1280 0C1249.7 0 1219.3 0 1188.8 0C1158.3 0 1127.7 0 1097.2 0C1066.7 0 1036.3 0 1005.8 0C975.3 0 944.7 0 914.2 0C883.7 0 853.3 0 822.8 0C792.3 0 761.7 0 731.2 0C700.7 0 670.3 0 640 0C609.7 0 579.3 0 548.8 0C518.3 0 487.7 0 457.2 0C426.7 0 396.3 0 365.8 0C335.3 0 304.7 0 274.2 0C243.7 0 213.3 0 182.8 0C152.3 0 121.7 0 91.2 0C60.7 0 30.3 0 15.2 0L0 0Z" fill="#008eaf"></path><path d="M0 118L15.2 117.3C30.3 116.7 60.7 115.3 91.2 112.3C121.7 109.3 152.3 104.7 182.8 101.3C213.3 98 243.7 96 274.2 95C304.7 94 335.3 94 365.8 98.8C396.3 103.7 426.7 113.3 457.2 119C487.7 124.7 518.3 126.3 548.8 122.8C579.3 119.3 609.7 110.7 640 109.8C670.3 109 700.7 116 731.2 116.7C761.7 117.3 792.3 111.7 822.8 110.5C853.3 109.3 883.7 112.7 914.2 114.5C944.7 116.3 975.3 116.7 1005.8 114.5C1036.3 112.3 1066.7 107.7 1097.2 106.3C1127.7 105 1158.3 107 1188.8 107.3C1219.3 107.7 1249.7 106.3 1280 105C1310.3 103.7 1340.7 102.3 1371.2 101.3C1401.7 100.3 1432.3 99.7 1462.8 101.3C1493.3 103 1523.7 107 1554.2 108.2C1584.7 109.3 1615.3 107.7 1645.8 106.7C1676.3 105.7 1706.7 105.3 1737.2 107.7C1767.7 110 1798.3 115 1828.8 116.7C1859.3 118.3 1889.7 116.7 1904.8 115.8L1920 115L1920 0L1904.8 0C1889.7 0 1859.3 0 1828.8 0C1798.3 0 1767.7 0 1737.2 0C1706.7 0 1676.3 0 1645.8 0C1615.3 0 1584.7 0 1554.2 0C1523.7 0 1493.3 0 1462.8 0C1432.3 0 1401.7 0 1371.2 0C1340.7 0 1310.3 0 1280 0C1249.7 0 1219.3 0 1188.8 0C1158.3 0 1127.7 0 1097.2 0C1066.7 0 1036.3 0 1005.8 0C975.3 0 944.7 0 914.2 0C883.7 0 853.3 0 822.8 0C792.3 0 761.7 0 731.2 0C700.7 0 670.3 0 640 0C609.7 0 579.3 0 548.8 0C518.3 0 487.7 0 457.2 0C426.7 0 396.3 0 365.8 0C335.3 0 304.7 0 274.2 0C243.7 0 213.3 0 182.8 0C152.3 0 121.7 0 91.2 0C60.7 0 30.3 0 15.2 0L0 0Z" fill="#0088b5"></path><path d="M0 60L15.2 60.7C30.3 61.3 60.7 62.7 91.2 64.5C121.7 66.3 152.3 68.7 182.8 73.2C213.3 77.7 243.7 84.3 274.2 84.8C304.7 85.3 335.3 79.7 365.8 75.5C396.3 71.3 426.7 68.7 457.2 69.2C487.7 69.7 518.3 73.3 548.8 74.8C579.3 76.3 609.7 75.7 640 75.2C670.3 74.7 700.7 74.3 731.2 74.8C761.7 75.3 792.3 76.7 822.8 78.3C853.3 80 883.7 82 914.2 80.3C944.7 78.7 975.3 73.3 1005.8 74.2C1036.3 75 1066.7 82 1097.2 83.2C1127.7 84.3 1158.3 79.7 1188.8 78.2C1219.3 76.7 1249.7 78.3 1280 79.7C1310.3 81 1340.7 82 1371.2 79C1401.7 76 1432.3 69 1462.8 70.2C1493.3 71.3 1523.7 80.7 1554.2 80.8C1584.7 81 1615.3 72 1645.8 66.5C1676.3 61 1706.7 59 1737.2 61.3C1767.7 63.7 1798.3 70.3 1828.8 74.3C1859.3 78.3 1889.7 79.7 1904.8 80.3L1920 81L1920 0L1904.8 0C1889.7 0 1859.3 0 1828.8 0C1798.3 0 1767.7 0 1737.2 0C1706.7 0 1676.3 0 1645.8 0C1615.3 0 1584.7 0 1554.2 0C1523.7 0 1493.3 0 1462.8 0C1432.3 0 1401.7 0 1371.2 0C1340.7 0 1310.3 0 1280 0C1249.7 0 1219.3 0 1188.8 0C1158.3 0 1127.7 0 1097.2 0C1066.7 0 1036.3 0 1005.8 0C975.3 0 944.7 0 914.2 0C883.7 0 853.3 0 822.8 0C792.3 0 761.7 0 731.2 0C700.7 0 670.3 0 640 0C609.7 0 579.3 0 548.8 0C518.3 0 487.7 0 457.2 0C426.7 0 396.3 0 365.8 0C335.3 0 304.7 0 274.2 0C243.7 0 213.3 0 182.8 0C152.3 0 121.7 0 91.2 0C60.7 0 30.3 0 15.2 0L0 0Z" fill="#0081b9"></path><path d="M0 44L15.2 41.8C30.3 39.7 60.7 35.3 91.2 36C121.7 36.7 152.3 42.3 182.8 44.7C213.3 47 243.7 46 274.2 41.3C304.7 36.7 335.3 28.3 365.8 29C396.3 29.7 426.7 39.3 457.2 43.2C487.7 47 518.3 45 548.8 41.8C579.3 38.7 609.7 34.3 640 32.8C670.3 31.3 700.7 32.7 731.2 31.3C761.7 30 792.3 26 822.8 27.2C853.3 28.3 883.7 34.7 914.2 36.3C944.7 38 975.3 35 1005.8 31.2C1036.3 27.3 1066.7 22.7 1097.2 22.5C1127.7 22.3 1158.3 26.7 1188.8 27.7C1219.3 28.7 1249.7 26.3 1280 27.5C1310.3 28.7 1340.7 33.3 1371.2 37.5C1401.7 41.7 1432.3 45.3 1462.8 43.5C1493.3 41.7 1523.7 34.3 1554.2 35.3C1584.7 36.3 1615.3 45.7 1645.8 45.5C1676.3 45.3 1706.7 35.7 1737.2 33.7C1767.7 31.7 1798.3 37.3 1828.8 36.8C1859.3 36.3 1889.7 29.7 1904.8 26.3L1920 23L1920 0L1904.8 0C1889.7 0 1859.3 0 1828.8 0C1798.3 0 1767.7 0 1737.2 0C1706.7 0 1676.3 0 1645.8 0C1615.3 0 1584.7 0 1554.2 0C1523.7 0 1493.3 0 1462.8 0C1432.3 0 1401.7 0 1371.2 0C1340.7 0 1310.3 0 1280 0C1249.7 0 1219.3 0 1188.8 0C1158.3 0 1127.7 0 1097.2 0C1066.7 0 1036.3 0 1005.8 0C975.3 0 944.7 0 914.2 0C883.7 0 853.3 0 822.8 0C792.3 0 761.7 0 731.2 0C700.7 0 670.3 0 640 0C609.7 0 579.3 0 548.8 0C518.3 0 487.7 0 457.2 0C426.7 0 396.3 0 365.8 0C335.3 0 304.7 0 274.2 0C243.7 0 213.3 0 182.8 0C152.3 0 121.7 0 91.2 0C60.7 0 30.3 0 15.2 0L0 0Z" fill="#1979bb"></path></svg>