<svg  version="1.1" viewBox="0 0 381.31 36.275" xmlns="http://www.w3.org/2000/svg">
 <g transform="translate(102.04 -134.92)">
  <g transform="matrix(.26458 0 0 .26458 -100.98 123.31)" fill="#fff">
   <g transform="translate(-2,44)">
    <path d="m-1.9969-0.10262c90.728 0.92753 149.91 27.291 293.91 60.015 95.998 21.816 251.69 29.423 467.09 22.821-289.66 73.522-544.66 70.714-761-7.9805" opacity=".1"/>
    <path d="m100 104.71c177.41-32.474 326.15-52.184 446.2-59.13 120.06-6.946 264.32-3.7808 432.8 9.4955-47.93 1.0483-168.7 19.771-362.3 56.169-193.6 36.398-365.84 34.219-516.7-6.5347z" opacity=".1"/>
    <path d="m1046 51.652c84.83-22.323 233.27-34.015 393.19-11.457v79.751c-167.83-42.056-299.02-64.785-393.19-68.294z" opacity=".2"/>
   </g>
   <g transform="translate(-4,76)">
    <path d="m0.0031118 34.393c56.629 19.163 97.703 31.746 123.32 37.802 57.632 13.63 110.97 18.095 148.71 21.264 39.322 3.3 124.6 2.342 188.99-1.796 25.735-1.653 57.702-5.291 95.901-10.911 38.821-6.156 65.446-10.744 79.873-13.761 27.114-5.667 75.702-17.488 90.806-20.863 52.865-11.811 91.234-23.596 128.72-30.224 66.365-11.735 99.352-13.382 154.86-15.472 49.52 1.045 86.205 2.697 110.05 4.955 40.467 3.832 87.385 12.434 114.16 16.917 50.455 8.444 119.26 25.141 205.79 50.063v31.985l-1441.2-0.07019z" fill="#fff"/>
   </g>
  </g>
 </g>
</svg>
